Coordinates
version=1
nRows=27
nColumns=12
inDegrees=yes

Units are S.I. units (second, meters, Newtons, ...)
Angles are in degrees

endheader
time	SC_y	SC_z	SC_x	AC_y	AC_z	AC_x	GH_y	GH_z	GH_yy	EL_x	PS_y
       0.0               -26.8           32.2          75.62          49.32          8.351          3.081          65.31          2.127         -107.9          133.5          153.5
   0.04419               -26.8          32.19          75.62          49.31          8.351          3.083           65.3           2.13         -107.9          133.5          153.5
   0.08838               -26.8          32.19          75.62          49.31          8.351          3.085           65.3          2.133         -107.9          133.5          153.5
    0.1326               -26.8          32.19          75.61          49.31          8.351          3.088           65.3          2.136         -107.9          133.5          153.5
    0.1768              -26.79          32.18          75.61          49.31          8.351           3.09           65.3          2.139         -107.9          133.5          153.5
     0.221              -26.79          32.18          75.61           49.3          8.352          3.093          65.29          2.142         -107.9          133.5          153.5
    0.2652              -26.79          32.17           75.6           49.3          8.352          3.096          65.29          2.145         -107.9          133.5          153.5
    0.3093              -26.79          32.17           75.6           49.3          8.352          3.099          65.28          2.149         -107.9          133.5          153.5
    0.3535              -26.79          32.17          75.59          49.29          8.353          3.102          65.28          2.153         -107.8          133.5          153.4
    0.3977              -26.79          32.16          75.58          49.29          8.353          3.106          65.28          2.157         -107.8          133.5          153.4
    0.4419              -26.79          32.15          75.58          49.29          8.353           3.11          65.27          2.162         -107.8          133.5          153.4
    0.4861              -26.78          32.15          75.57          49.28          8.354          3.114          65.27          2.167         -107.8          133.5          153.4
    0.5303              -26.78          32.14          75.56          49.28          8.354          3.118          65.26          2.172         -107.8          133.5          153.4
    0.5745              -26.78          32.13          75.56          49.27          8.355          3.123          65.25          2.178         -107.8          133.5          153.4
    0.6187              -26.78          32.13          75.55          49.27          8.355          3.128          65.25          2.184         -107.8          133.5          153.4
    0.6629              -26.78          32.12          75.54          49.26          8.356          3.133          65.24          2.191         -107.7          133.5          153.4
    0.7071              -26.77          32.11          75.53          49.25          8.356           3.14          65.23          2.198         -107.7          133.5          153.4
    0.7513              -26.77           32.1          75.52          49.25          8.357          3.146          65.23          2.206         -107.7          133.5          153.3
    0.7955              -26.77          32.09          75.51          49.24          8.358          3.153          65.22          2.215         -107.7          133.5          153.3
    0.8397              -26.77          32.07          75.49          49.23          8.358          3.161          65.21          2.224         -107.6          133.5          153.3
    0.8838              -26.76          32.06          75.48          49.22          8.359           3.17           65.2          2.235         -107.6          133.5          153.3
     0.928              -26.76          32.05          75.46          49.21           8.36          3.179          65.18          2.246         -107.6          133.5          153.3
    0.9722              -26.75          32.03          75.45           49.2          8.361           3.19          65.17          2.259         -107.5          133.5          153.2
     1.016              -26.75          32.01          75.43          49.18          8.362          3.202          65.16          2.273         -107.5          133.5          153.2
     1.061              -26.74          31.99          75.41          49.17          8.364          3.215          65.14          2.289         -107.4          133.5          153.2
     1.105              -26.74          31.97          75.38          49.15          8.365          3.229          65.12          2.307         -107.4          133.5          153.1
     1.149              -26.73          31.94          75.36          49.14          8.367          3.245           65.1          2.326         -107.3          133.5          153.1
